<svg xmlns="http://www.w3.org/2000/svg" viewBox="0 0 13.89 13.86"><defs><style>.cls-1{fill:#d6ad75;}</style></defs><title>資產 2</title><g id="圖層_2" data-name="圖層 2"><g id="圖層_1-2" data-name="圖層 1"><path class="cls-1" d="M13.89,2.79v.43c-.07.21-.09.43-.17.63A2.92,2.92,0,0,1,13,5L9.49,8.48a2.86,2.86,0,0,1-2.33.88,2.81,2.81,0,0,1-1.82-.84.58.58,0,0,1,0-.81.56.56,0,0,1,.79,0,2,2,0,0,0,.81.47A1.69,1.69,0,0,0,8.62,7.7q1.8-1.79,3.59-3.58a1.72,1.72,0,0,0-.72-2.88,1.69,1.69,0,0,0-1.76.46L7.84,3.59a.58.58,0,0,1-.9-.73s0,0,0-.06C7.71,2.09,8.38,1.35,9.13.69A2.67,2.67,0,0,1,11.34,0a2.82,2.82,0,0,1,2.31,1.71,2.65,2.65,0,0,1,.21.78"/><path class="cls-1" d="M2.63,13.86H2.55a2.36,2.36,0,0,1-.83-.21A2.85,2.85,0,0,1,.38,12.47,2.61,2.61,0,0,1,0,11.32v-.08a.25.25,0,0,0,0-.17v-.43c0-.17.08-.34.13-.51A2.9,2.9,0,0,1,.89,8.89L4.07,5.71A2.88,2.88,0,0,1,6.4,4.83a2.81,2.81,0,0,1,1.82.84.58.58,0,0,1-.78.85A2.07,2.07,0,0,0,6.62,6a1.69,1.69,0,0,0-1.68.45C3.85,7.57,2.76,8.65,1.68,9.75a1.71,1.71,0,0,0,.71,2.87,1.66,1.66,0,0,0,1.76-.46l1.58-1.57a.57.57,0,0,1,.71-.12.56.56,0,0,1,.18.86l-.06.08C6,12,5.41,12.56,4.81,13.13a2.65,2.65,0,0,1-1.55.71"/></g></g></svg>