<?xml version="1.0" encoding="UTF-8"?><svg id="_層_2" xmlns="http://www.w3.org/2000/svg" viewBox="0 0 14.87 14.87"><defs><style>.cls-1{fill:#d6ad75;}</style></defs><g id="_層_1-2"><g><path class="cls-1" d="M6.98,14.87c-1.99,0-3.99,0-5.98,0C.36,14.87,0,14.51,0,13.87,0,9.87,0,5.87,0,1.87c0-.64,.36-1,1-1,2.22,0,4.44,0,6.66,0,.18,0,.25,.03,.23,.22-.02,.16-.02,.31,0,.47,.02,.18-.05,.21-.22,.21-.79,0-1.58,0-2.38,0-1.4,0-2.8,0-4.2,0-.15,0-.2,.03-.2,.2,0,3.95,0,7.89,0,11.84,0,.15,.04,.19,.19,.19,3.95,0,7.89,0,11.84,0,.17,0,.2-.05,.19-.2,0-2.19,0-4.38,0-6.58,0-.17,.03-.23,.21-.22,.18,.02,.36,.01,.53,0,.13,0,.16,.04,.16,.16,0,2.27,0,4.55,0,6.82,0,.52-.4,.9-.94,.9-2.03,0-4.06,0-6.08,0Z"/><path class="cls-1" d="M13.32,.88c-.44,0-.86,0-1.29,0-.46,0-.91,0-1.37,0-.14,0-.18-.04-.17-.17,.01-.18,.01-.36,0-.53-.01-.14,.03-.18,.18-.18,.7,0,1.39,0,2.09,0,.65,0,1.3,0,1.95,0,.12,0,.18,.01,.18,.16,0,1.35,0,2.7,0,4.05,0,.13-.03,.18-.17,.17-.18-.01-.36-.02-.53,0-.16,.01-.19-.05-.19-.2,0-.81,0-1.61,0-2.42v-.22c-.09,.02-.13,.09-.18,.14-1.54,1.53-3.07,3.07-4.6,4.61-.12,.12-.18,.14-.29,0-.11-.14-.24-.26-.38-.38-.09-.08-.1-.13,0-.22,.46-.45,.92-.91,1.38-1.37,1.09-1.09,2.17-2.17,3.26-3.26,.05-.05,.12-.09,.15-.18Z"/></g></g></svg>