<?xml version="1.0" encoding="UTF-8"?><svg id="_層_2" xmlns="http://www.w3.org/2000/svg" viewBox="0 0 16 15.97"><defs><style>.cls-1{fill:#d6ad75;}</style></defs><g id="_層_1-2"><g><path class="cls-1" d="M16,3.21v.5c-.08,.24-.1,.49-.19,.73-.18,.5-.46,.92-.84,1.29-1.35,1.34-2.7,2.69-4.04,4.03-.74,.74-1.63,1.09-2.68,1.02-.82-.06-1.52-.39-2.1-.97-.26-.26-.25-.67,0-.93,.24-.26,.64-.28,.91-.04,.28,.24,.57,.45,.93,.54,.74,.18,1.4,.01,1.94-.52,1.38-1.37,2.76-2.74,4.13-4.12,1.08-1.09,.63-2.88-.82-3.32-.77-.23-1.46-.03-2.03,.53-.73,.72-1.45,1.45-2.18,2.17-.26,.26-.57,.31-.85,.15-.36-.21-.45-.66-.19-.99,.02-.02,.04-.05,.06-.07,.82-.81,1.6-1.66,2.47-2.43C11.24,.15,12.11-.09,13.07,.03c1.25,.17,2.13,.84,2.66,1.98,.13,.28,.21,.58,.24,.89"/><path class="cls-1" d="M3.03,15.97h-.09c-.33-.02-.65-.11-.96-.24-.66-.29-1.17-.74-1.54-1.36C.19,13.96,.03,13.52,0,13.04v-.09C.03,12.88,.03,12.82,0,12.76v-.5c.05-.2,.09-.4,.15-.59,.16-.55,.47-1.02,.88-1.43,1.22-1.22,2.44-2.44,3.67-3.66,.74-.74,1.63-1.09,2.68-1.01,.82,.06,1.52,.39,2.1,.97,.25,.26,.25,.65,.01,.91-.24,.26-.64,.3-.91,.06-.28-.24-.58-.46-.94-.55-.74-.18-1.4-.01-1.94,.52-1.26,1.24-2.51,2.49-3.75,3.75-1.08,1.09-.63,2.88,.82,3.32,.77,.23,1.46,.03,2.03-.53,.61-.6,1.21-1.21,1.81-1.81,.25-.25,.55-.3,.82-.15,.37,.2,.47,.67,.21,1-.02,.03-.04,.06-.07,.08-.67,.66-1.33,1.34-2.01,1.98-.5,.47-1.11,.74-1.79,.82"/></g></g></svg>