<?xml version="1.0" encoding="UTF-8"?><svg id="_層_2" xmlns="http://www.w3.org/2000/svg" viewBox="0 0 19.79 13.71"><defs><style>.cls-1{fill:#d6ad75;}</style></defs><g id="_層_1-2"><path class="cls-1" d="M19.78,1.95C19.78,.85,18.91,0,17.8,0c-2.63,0-5.26,0-7.9,0S4.63,0,1.99,0C.87,0,0,.85,0,1.97c0,3.25,0,6.5,0,9.76,0,1.1,.86,1.97,1.97,1.97,5.28,0,10.56,0,15.84,0,1.11,0,1.97-.86,1.97-1.97,0-3.26,0-6.52,0-9.78Zm-1.59-1.12c-.65,.58-1.3,1.15-1.96,1.73-2.05,1.81-4.09,3.61-6.13,5.42-.17,.15-.26,.14-.42,0C7.03,5.63,4.37,3.29,1.72,.94c-.04-.03-.07-.07-.12-.11,.24-.11,16.36-.11,16.59,0ZM.84,12.1c-.07-.1-.07-.21-.07-.32,0-3.29,0-6.58,0-9.87,0-.22,.06-.43,.2-.62,.7,.62,1.39,1.23,2.08,1.84,1.01,.89,2.02,1.78,3.03,2.67,.12,.1,.17,.17,.04,.31-1.75,1.98-3.48,3.96-5.23,5.95-.01,.02-.03,.03-.05,.05Zm16.95,.84c-5.26,0-10.53,0-15.79,0-.18,0-.36-.03-.53-.1-.14-.06-.18-.11-.06-.25,.55-.61,1.09-1.24,1.63-1.86,1.21-1.37,2.42-2.75,3.62-4.13,.12-.14,.18-.15,.32-.02,.86,.77,1.73,1.53,2.6,2.3,.23,.2,.39,.2,.62,0,.86-.75,1.72-1.51,2.56-2.27,.16-.15,.24-.17,.41,.02,1.74,2,3.5,3.99,5.25,5.99,.02,.03,.05,.06,.09,.1-.23,.15-.46,.21-.72,.21Zm1.16-.86c-.5-.57-.99-1.13-1.48-1.69-1.26-1.43-2.51-2.87-3.77-4.29-.12-.14-.11-.2,.02-.31,1.65-1.45,3.29-2.9,4.93-4.35,.19-.17,.19-.17,.29,.06,.06,.14,.09,.29,.09,.44,0,3.27,0,6.53,0,9.8,0,.11,.02,.23-.07,.34Z"/></g></svg>