<svg xmlns="http://www.w3.org/2000/svg" viewBox="0 0 14.96 15.02"><defs><style>.cls-1{fill:#d6ad75;}</style></defs><title>資產 1</title><g id="圖層_2" data-name="圖層 2"><g id="圖層_1-2" data-name="圖層 1"><path class="cls-1" d="M11.51,15a2.47,2.47,0,0,0,1.91-.82h0a7,7,0,0,1,.6-.62l.44-.44a1.51,1.51,0,0,0,0-2.24L12.59,9a1.52,1.52,0,0,0-1.1-.5,1.56,1.56,0,0,0-1.11.5L9.27,10.13,9,10l-.34-.19A11.73,11.73,0,0,1,5.81,7.22,6.63,6.63,0,0,1,4.86,5.7c.29-.26.56-.54.82-.8L6,4.61a1.6,1.6,0,0,0,.52-1.13A1.58,1.58,0,0,0,6,2.36l-.92-.93c-.11-.11-.22-.21-.32-.32S4.31.68,4.1.49A1.55,1.55,0,0,0,3,0,1.62,1.62,0,0,0,1.89.49L.73,1.65A2.47,2.47,0,0,0,0,3.18,5.66,5.66,0,0,0,.45,5.67,14.4,14.4,0,0,0,3,10a16,16,0,0,0,5.3,4.15,8.13,8.13,0,0,0,3,.87ZM3.62,9.49A13.53,13.53,0,0,1,1.17,5.4,4.92,4.92,0,0,1,.78,3.25a1.69,1.69,0,0,1,.49-1.06L2.43,1A.82.82,0,0,1,3,.77.8.8,0,0,1,3.56,1c.21.2.4.4.61.61L4.5,2l.92.92a.83.83,0,0,1,.29.58.81.81,0,0,1-.29.58c-.09.1-.19.19-.29.29-.28.29-.56.57-.85.84h0a.63.63,0,0,0-.16.7v0A7.49,7.49,0,0,0,5.2,7.7a12.69,12.69,0,0,0,3,2.73c.14.09.28.16.41.23l.35.18,0,0a.71.71,0,0,0,.31.08.61.61,0,0,0,.46-.22l1.16-1.16a.84.84,0,0,1,.57-.28.82.82,0,0,1,.55.28l1.87,1.87a.75.75,0,0,1,0,1.17l-.41.41a7,7,0,0,0-.65.68,1.72,1.72,0,0,1-1.33.56h-.17a7.23,7.23,0,0,1-2.67-.8A15.08,15.08,0,0,1,3.62,9.49Z"/></g></g></svg>