<?xml version="1.0" encoding="UTF-8"?><svg id="_層_2" xmlns="http://www.w3.org/2000/svg" viewBox="0 0 16.13 16.34"><defs><style>.cls-1{fill:#d6ad75;}</style></defs><g id="_層_1-2"><g><g><path class="cls-1" d="M16.13,3.88c0,.12-.1,.25-.22,.29-.14,.04-.28-.01-.34-.15-.07-.14-.12-.29-.18-.43-.65-1.4-1.69-2.39-3.13-2.97-.24-.1-.33-.19-.3-.37,.02-.18,.16-.29,.34-.25,.25,.05,.48,.17,.7,.28,1.46,.74,2.5,1.88,3.09,3.41,.01,.04,.02,.07,.03,.11,0,.02,.01,.05,.02,.07Z"/><path class="cls-1" d="M11.45,2.25c.17,.04,.34,.12,.5,.2,.87,.46,1.5,1.14,1.87,2.06,.09,.22,.04,.4-.14,.47-.17,.07-.33,0-.42-.23-.21-.53-.54-.99-.98-1.36-.28-.23-.59-.41-.93-.54-.21-.09-.28-.22-.23-.39,.04-.12,.17-.22,.31-.2Z"/><path class="cls-1" d="M10.57,4.5c.17,.01,.29,.07,.4,.14,.31,.19,.54,.45,.64,.81,.04,.15-.04,.3-.18,.35-.14,.05-.3,0-.36-.13-.12-.29-.32-.48-.61-.61-.14-.06-.18-.2-.14-.35,.04-.12,.16-.21,.25-.21Z"/></g><path class="cls-1" d="M11.51,16.34c.78,0,1.4-.27,1.91-.82h.01c.18-.23,.38-.43,.6-.63,.14-.14,.3-.29,.44-.43,.66-.69,.66-1.57,0-2.24l-1.87-1.87c-.32-.33-.7-.51-1.1-.51s-.78,.17-1.11,.5l-1.11,1.11c-.1-.06-.2-.11-.31-.16-.12-.06-.24-.12-.34-.19-1.01-.64-1.93-1.48-2.81-2.56-.44-.56-.74-1.03-.95-1.52,.29-.26,.56-.54,.83-.81,.09-.1,.19-.19,.29-.29,.34-.34,.52-.73,.52-1.12s-.18-.78-.52-1.12l-.93-.93c-.11-.11-.21-.21-.32-.32-.2-.21-.42-.43-.63-.62-.32-.32-.7-.49-1.09-.49s-.78,.17-1.11,.49L.73,2.97C.31,3.39,.07,3.91,.01,4.5c-.06,.74,.08,1.53,.43,2.49,.55,1.48,1.37,2.85,2.59,4.31,1.48,1.77,3.26,3.17,5.3,4.15,.78,.37,1.81,.8,2.96,.88,.07,0,.14,0,.21,0ZM3.62,10.81c-1.16-1.4-1.94-2.7-2.45-4.09-.32-.86-.44-1.52-.39-2.16,.03-.41,.2-.76,.49-1.05l1.16-1.16c.18-.17,.38-.26,.57-.26s.38,.09,.56,.27c.21,.2,.41,.4,.61,.61,.11,.11,.21,.22,.32,.33l.93,.93c.19,.19,.29,.39,.29,.58s-.1,.38-.29,.58c-.1,.1-.2,.2-.29,.29-.29,.29-.56,.57-.86,.83l-.02,.02c-.26,.26-.22,.51-.16,.7v.03c.25,.58,.58,1.12,1.1,1.78,.94,1.15,1.92,2.04,3,2.73,.14,.09,.27,.16,.41,.22,.12,.06,.24,.12,.34,.19l.03,.02c.1,.05,.2,.08,.3,.08,.25,0,.41-.16,.47-.21l1.16-1.16c.18-.18,.37-.27,.56-.27,.24,0,.43,.14,.55,.27l1.87,1.87c.37,.37,.37,.77,0,1.17-.13,.14-.27,.27-.41,.41-.22,.21-.44,.43-.65,.67-.36,.38-.78,.56-1.33,.56-.05,0-.11,0-.16,0-1.02-.07-1.97-.46-2.68-.8-1.93-.93-3.63-2.26-5.04-3.95Z"/></g></g></svg>