<?xml version="1.0" encoding="UTF-8"?><svg xmlns="http://www.w3.org/2000/svg" xmlns:xlink="http://www.w3.org/1999/xlink" viewBox="0 0 155.35 33.14"><defs><style>.cls-1{fill:url(#linear-gradient-2);}.cls-2{clip-path:url(#clippath-20);}.cls-3{fill:#c2d136;}.cls-4{clip-path:url(#clippath-11);}.cls-5{clip-path:url(#clippath-16);}.cls-6{fill:#fff;}.cls-7{fill:url(#linear-gradient-17);}.cls-8{clip-path:url(#clippath-33);}.cls-9{clip-path:url(#clippath-32);}.cls-10{fill:url(#linear-gradient-15);}.cls-11{fill:#88bd44;}.cls-12{fill:url(#linear-gradient-18);}.cls-13{fill:url(#linear-gradient-14);}.cls-14{mask:url(#mask-2);}.cls-15{fill:url(#linear-gradient-6);}.cls-16{clip-path:url(#clippath-2);}.cls-17{clip-path:url(#clippath-13);}.cls-18{isolation:isolate;}.cls-19{clip-path:url(#clippath-37);}.cls-20{clip-path:url(#clippath-25);}.cls-21{clip-path:url(#clippath-15);}.cls-22{clip-path:url(#clippath-6);}.cls-23{mask:url(#mask-3);}.cls-24{clip-path:url(#clippath-26);}.cls-25{fill:url(#linear-gradient-11);}.cls-26{clip-path:url(#clippath-7);}.cls-27{clip-path:url(#clippath-21);}.cls-28{clip-path:url(#clippath-34);}.cls-29{clip-path:url(#clippath-1);}.cls-30{clip-path:url(#clippath-4);}.cls-31{clip-path:url(#clippath-38);}.cls-32{fill:url(#linear-gradient-10);}.cls-33{clip-path:url(#clippath-36);}.cls-34{clip-path:url(#clippath-27);}.cls-35{mask:url(#mask-5);}.cls-36{fill:url(#linear-gradient-16);}.cls-37{clip-path:url(#clippath-12);}.cls-38{clip-path:url(#clippath-24);}.cls-39{clip-path:url(#clippath-30);}.cls-40{mask:url(#mask-8);}.cls-41{clip-path:url(#clippath-22);}.cls-42{mask:url(#mask-4);}.cls-43{fill:url(#linear-gradient-5);}.cls-44{clip-path:url(#clippath-9);}.cls-45{clip-path:url(#clippath);}.cls-46{fill:none;}.cls-47{clip-path:url(#clippath-19);}.cls-48{clip-path:url(#clippath-31);}.cls-49{mask:url(#mask-6);}.cls-50{clip-path:url(#clippath-3);}.cls-51{fill:url(#linear-gradient-7);}.cls-52{clip-path:url(#clippath-8);}.cls-53{fill:url(#linear-gradient-9);}.cls-54{mask:url(#mask-1);}.cls-55{mask:url(#mask);}.cls-56{clip-path:url(#clippath-29);}.cls-57{clip-path:url(#clippath-18);}.cls-58{clip-path:url(#clippath-14);}.cls-59{fill:url(#linear-gradient-3);}.cls-60{clip-path:url(#clippath-17);}.cls-61{clip-path:url(#clippath-5);}.cls-62{fill:url(#linear-gradient);}.cls-63{mask:url(#mask-7);}.cls-64{clip-path:url(#clippath-10);}.cls-65{clip-path:url(#clippath-23);}.cls-66{fill:url(#linear-gradient-4);}.cls-67{clip-path:url(#clippath-28);}.cls-68{fill:url(#linear-gradient-8);}.cls-69{mix-blend-mode:multiply;opacity:.6;}.cls-70{fill:url(#linear-gradient-12);}.cls-71{clip-path:url(#clippath-35);}.cls-72{fill:url(#linear-gradient-13);}</style><clipPath id="clippath"><polygon class="cls-46" points="22.51 8.62 25.27 10.21 28.02 8.62 25.27 7.03 22.51 8.62"/></clipPath><clipPath id="clippath-1"><rect class="cls-46" x="22.08" y="5.87" width="6.37" height="5.51" transform="translate(-.93 13.78) rotate(-29.97)"/></clipPath><linearGradient id="linear-gradient" x1="1311.55" y1="1503.58" x2="1312.55" y2="1503.58" gradientTransform="translate(4160.84 3618.2) rotate(-89.99) scale(2.75 -2.75)" gradientUnits="userSpaceOnUse"><stop offset="0" stop-color="#fff"/><stop offset=".1" stop-color="#f9f9f9"/><stop offset=".23" stop-color="#e9e8e8"/><stop offset=".38" stop-color="#cfcdcc"/><stop offset=".54" stop-color="#aba7a6"/><stop offset=".72" stop-color="#7d7775"/><stop offset=".9" stop-color="#453c3a"/><stop offset="1" stop-color="#231815"/></linearGradient><mask id="mask" x="17.68" y="1.06" width="15.17" height="15.12" maskUnits="userSpaceOnUse"><g><rect x="21.13" y="4.64" width="8.27" height="7.96"/><g class="cls-18"><g class="cls-29"><rect class="cls-62" x="19.69" y="3.11" width="11.14" height="11.03" transform="translate(-.93 13.79) rotate(-30.01)"/></g></g></g></mask><clipPath id="clippath-2"><rect class="cls-46" x="21.13" y="4.64" width="8.27" height="7.96"/></clipPath><clipPath id="clippath-3"><rect class="cls-46" x="22.08" y="5.87" width="6.37" height="5.51" transform="translate(-.93 13.79) rotate(-30)"/></clipPath><linearGradient id="linear-gradient-2" x1="1311.55" y1="1503.58" x2="1312.55" y2="1503.58" gradientTransform="translate(4160.84 3618.2) rotate(-89.99) scale(2.75 -2.75)" gradientUnits="userSpaceOnUse"><stop offset="0" stop-color="#6b9741"/><stop offset=".31" stop-color="#6e9b41"/><stop offset=".68" stop-color="#79aa42"/><stop offset="1" stop-color="#88bd44"/></linearGradient><clipPath id="clippath-4"><polygon class="cls-46" points="30.77 13.39 32.65 14.45 35.4 12.86 33.53 11.81 30.77 13.39"/></clipPath><clipPath id="clippath-5"><rect class="cls-46" x="30.42" y="10.83" width="5.34" height="4.61" transform="translate(-2.14 18.28) rotate(-29.96)"/></clipPath><linearGradient id="linear-gradient-3" x1="1597.19" y1="1494.51" x2="1598.19" y2="1494.51" gradientTransform="translate(2795.63 2966.05) rotate(-90) scale(1.85 -1.85)" gradientUnits="userSpaceOnUse"><stop offset="0" stop-color="#231815"/><stop offset=".1" stop-color="#453c3a"/><stop offset=".28" stop-color="#7d7775"/><stop offset=".46" stop-color="#aba7a6"/><stop offset=".62" stop-color="#cfcdcc"/><stop offset=".77" stop-color="#e9e8e8"/><stop offset=".9" stop-color="#f9f9f9"/><stop offset="1" stop-color="#fff"/></linearGradient><mask id="mask-1" x="26.74" y="6.8" width="12.69" height="12.65" maskUnits="userSpaceOnUse"><g><rect x="29.62" y="9.8" width="6.92" height="6.66"/><g class="cls-18"><g class="cls-61"><rect class="cls-59" x="28.42" y="8.51" width="9.32" height="9.23" transform="translate(-2.13 18.3) rotate(-30)"/></g></g></g></mask><clipPath id="clippath-6"><rect class="cls-46" x="29.62" y="9.8" width="6.92" height="6.66"/></clipPath><clipPath id="clippath-7"><rect class="cls-46" x="30.42" y="10.83" width="5.34" height="4.61" transform="translate(-2.14 18.28) rotate(-29.96)"/></clipPath><linearGradient id="linear-gradient-4" x1="1597.19" y1="1494.51" x2="1598.19" y2="1494.51" gradientTransform="translate(2794.92 2966.72) rotate(-89.99) scale(1.85 -1.85)" gradientUnits="userSpaceOnUse"><stop offset="0" stop-color="#88bd44"/><stop offset=".32" stop-color="#79aa42"/><stop offset=".69" stop-color="#6e9b41"/><stop offset="1" stop-color="#6b9741"/></linearGradient><clipPath id="clippath-8"><polygon class="cls-46" points="19.76 13.39 22.53 14.99 25.29 13.39 22.53 11.81 19.76 13.39"/></clipPath><clipPath id="clippath-9"><rect class="cls-46" x="19.77" y="10.21" width="5.51" height="6.37" transform="translate(-.34 26.21) rotate(-60.01)"/></clipPath><linearGradient id="linear-gradient-5" x1="1035.03" y1="2019.38" x2="1036.04" y2="2019.38" gradientTransform="translate(-2826.82 5568.54) scale(2.75 -2.75)" xlink:href="#linear-gradient"/><mask id="mask-2" x="14.94" y="5.84" width="15.17" height="15.12" maskUnits="userSpaceOnUse"><g><rect x="18.39" y="9.42" width="8.27" height="7.96"/><g class="cls-18"><g class="cls-44"><rect class="cls-43" x="17.01" y="7.83" width="11.03" height="11.14" transform="translate(-.34 26.21) rotate(-60.01)"/></g></g></g></mask><clipPath id="clippath-10"><rect class="cls-46" x="18.39" y="9.42" width="8.27" height="7.96"/></clipPath><clipPath id="clippath-11"><rect class="cls-46" x="19.77" y="10.21" width="5.51" height="6.37" transform="translate(-.34 26.21) rotate(-60.01)"/></clipPath><linearGradient id="linear-gradient-6" x1="1035.03" y1="2019.38" x2="1036.04" y2="2019.38" gradientTransform="translate(-2825.48 5569.23) scale(2.75 -2.75)" xlink:href="#linear-gradient-2"/><clipPath id="clippath-12"><polygon class="cls-46" points="5.94 18.18 8.7 19.76 11.46 18.18 8.7 16.58 5.94 18.18"/></clipPath><clipPath id="clippath-13"><rect class="cls-46" x="5.62" y="15.1" width="6.15" height="6.15" transform="translate(-10.3 11.47) rotate(-44.98)"/></clipPath><linearGradient id="linear-gradient-7" x1="1122.54" y1="1402.37" x2="1123.54" y2="1402.37" gradientTransform="translate(5464.05 4386.85) rotate(-90) scale(3.89 -3.89)" xlink:href="#linear-gradient"/><mask id="mask-3" y="9.48" width="17.4" height="17.4" maskUnits="userSpaceOnUse"><g><rect x="4.35" y="13.83" width="8.7" height="8.7"/><g class="cls-18"><g class="cls-17"><rect class="cls-51" x="2.55" y="12.03" width="12.3" height="12.3" transform="translate(-10.31 11.47) rotate(-45)"/></g></g></g></mask><clipPath id="clippath-14"><rect class="cls-46" x="4.35" y="13.83" width="8.7" height="8.7"/></clipPath><clipPath id="clippath-15"><rect class="cls-46" x="5.62" y="15.1" width="6.15" height="6.15" transform="translate(-10.3 11.47) rotate(-44.98)"/></clipPath><linearGradient id="linear-gradient-8" x1="1122.54" y1="1402.37" x2="1123.54" y2="1402.37" gradientTransform="translate(5464.06 4386.86) rotate(-90) scale(3.89 -3.89)" xlink:href="#linear-gradient-2"/><clipPath id="clippath-16"><polygon class="cls-46" points="14.22 22.95 16.99 24.54 19.74 22.95 16.99 21.36 14.22 22.95"/></clipPath><clipPath id="clippath-17"><rect class="cls-46" x="13.8" y="20.19" width="6.37" height="5.51" transform="translate(-9.2 11.57) rotate(-30.01)"/></clipPath><linearGradient id="linear-gradient-9" x1="1311.3" y1="1503.81" x2="1312.3" y2="1503.81" gradientTransform="translate(4153.38 3632.53) rotate(-89.99) scale(2.75 -2.75)" xlink:href="#linear-gradient-3"/><mask id="mask-4" x="9.4" y="15.39" width="15.17" height="15.12" maskUnits="userSpaceOnUse"><g><rect x="12.85" y="18.97" width="8.27" height="7.96"/><g class="cls-18"><g class="cls-60"><rect class="cls-53" x="11.41" y="17.43" width="11.14" height="11.03" transform="translate(-9.2 11.57) rotate(-30.01)"/></g></g></g></mask><clipPath id="clippath-18"><rect class="cls-46" x="12.85" y="18.97" width="8.27" height="7.96"/></clipPath><clipPath id="clippath-19"><rect class="cls-46" x="13.8" y="20.19" width="6.37" height="5.51" transform="translate(-9.2 11.57) rotate(-30.01)"/></clipPath><linearGradient id="linear-gradient-10" x1="1311.3" y1="1503.81" x2="1312.3" y2="1503.81" gradientTransform="translate(4153.38 3632.53) rotate(-89.99) scale(2.75 -2.75)" xlink:href="#linear-gradient-4"/><clipPath id="clippath-20"><rect class="cls-46" x="10.64" y="21.52" width="4.99" height="4.81"/></clipPath><clipPath id="clippath-21"><polygon class="cls-46" points="14.22 22.96 11.47 24.54 12.06 24.88 14.8 23.3 14.22 22.96"/></clipPath><clipPath id="clippath-22"><rect class="cls-46" x="11.21" y="22.26" width="3.84" height="3.33" transform="translate(-10.22 9.8) rotate(-30.08)"/></clipPath><linearGradient id="linear-gradient-11" x1="3450.88" y1="1436.59" x2="3451.88" y2="1436.59" gradientTransform="translate(861.54 2062.41) rotate(-90) scale(.59 -.59)" gradientUnits="userSpaceOnUse"><stop offset="0" stop-color="#231815"/><stop offset=".13" stop-color="#382e2b"/><stop offset=".39" stop-color="#6f6866"/><stop offset=".77" stop-color="#c6c3c3"/><stop offset="1" stop-color="#fff"/></linearGradient><mask id="mask-5" x="8.56" y="19.35" width="9.16" height="9.13" maskUnits="userSpaceOnUse"><g><rect x="10.64" y="21.52" width="4.99" height="4.81"/><g class="cls-18"><g class="cls-41"><rect class="cls-25" x="9.77" y="20.59" width="6.73" height="6.66" transform="translate(-10.2 9.77) rotate(-30)"/></g></g></g></mask><clipPath id="clippath-23"><rect class="cls-46" x="10.64" y="21.52" width="4.99" height="4.81"/></clipPath><clipPath id="clippath-24"><rect class="cls-46" x="11.21" y="22.26" width="3.84" height="3.33" transform="translate(-10.21 9.78) rotate(-30.03)"/></clipPath><linearGradient id="linear-gradient-12" x1="3450.88" y1="1436.59" x2="3451.88" y2="1436.59" gradientTransform="translate(860.73 2062.75) rotate(-89.97) scale(.59 -.59)" gradientUnits="userSpaceOnUse"><stop offset="0" stop-color="#88bd44"/><stop offset=".32" stop-color="#98bd6b"/><stop offset="1" stop-color="#bcbdbe"/></linearGradient><clipPath id="clippath-25"><rect class="cls-46" x="27.19" y="11.96" width="4.99" height="4.81"/></clipPath><clipPath id="clippath-26"><polygon class="cls-46" points="30.78 13.4 28.02 14.98 28.61 15.33 31.35 13.74 30.78 13.4"/></clipPath><clipPath id="clippath-27"><rect class="cls-46" x="27.77" y="12.69" width="3.84" height="3.33" transform="translate(-3.2 16.77) rotate(-30.01)"/></clipPath><linearGradient id="linear-gradient-13" x1="3453.14" y1="1435.23" x2="3454.14" y2="1435.23" gradientTransform="translate(876.66 2053.2) rotate(-89.99) scale(.59 -.59)" xlink:href="#linear-gradient-11"/><mask id="mask-6" x="25.11" y="9.8" width="9.16" height="9.13" maskUnits="userSpaceOnUse"><g><rect x="27.19" y="11.96" width="4.99" height="4.81"/><g class="cls-18"><g class="cls-34"><rect class="cls-72" x="26.32" y="11.03" width="6.73" height="6.66" transform="translate(-3.2 16.78) rotate(-30.01)"/></g></g></g></mask><clipPath id="clippath-28"><rect class="cls-46" x="27.19" y="11.96" width="4.99" height="4.81"/></clipPath><clipPath id="clippath-29"><rect class="cls-46" x="27.77" y="12.69" width="3.84" height="3.33" transform="translate(-3.2 16.77) rotate(-30.01)"/></clipPath><linearGradient id="linear-gradient-14" x1="3453.14" y1="1435.23" x2="3454.14" y2="1435.23" gradientTransform="translate(877.47 2052.86) rotate(-90.02) scale(.59 -.59)" xlink:href="#linear-gradient-12"/><clipPath id="clippath-30"><polygon class="cls-46" points="11.44 18.17 14.21 19.76 16.96 18.17 14.21 16.58 11.44 18.17"/></clipPath><clipPath id="clippath-31"><rect class="cls-46" x="11.44" y="14.98" width="5.52" height="6.37" transform="translate(-8.63 21.39) rotate(-60.01)"/></clipPath><linearGradient id="linear-gradient-15" x1="1035.02" y1="2019.38" x2="1036.03" y2="2019.38" gradientTransform="translate(-2836.78 5572.48) rotate(.02) scale(2.75 -2.75)" xlink:href="#linear-gradient-3"/><mask id="mask-7" x="6.62" y="10.6" width="15.16" height="15.13" maskUnits="userSpaceOnUse"><g><rect x="10.07" y="14.19" width="8.27" height="7.97"/><g class="cls-18"><g class="cls-48"><rect class="cls-10" x="8.69" y="12.6" width="11.03" height="11.15" transform="translate(-8.63 21.39) rotate(-60.02)"/></g></g></g></mask><clipPath id="clippath-32"><rect class="cls-46" x="10.07" y="14.19" width="8.27" height="7.97"/></clipPath><clipPath id="clippath-33"><rect class="cls-46" x="11.44" y="14.98" width="5.52" height="6.37" transform="translate(-8.63 21.38) rotate(-60)"/></clipPath><linearGradient id="linear-gradient-16" x1="1035.02" y1="2019.38" x2="1036.03" y2="2019.38" gradientTransform="translate(-2836.78 5572.48) rotate(.02) scale(2.75 -2.75)" xlink:href="#linear-gradient-4"/><clipPath id="clippath-34"><rect class="cls-46" x="15.6" y="16.73" width="4.99" height="4.81"/></clipPath><clipPath id="clippath-35"><polygon class="cls-46" points="17.01 18.17 16.43 18.52 19.17 20.1 19.76 19.76 17.01 18.17"/></clipPath><clipPath id="clippath-36"><rect class="cls-46" x="16.43" y="17.22" width="3.33" height="3.84" transform="translate(-7.53 25.23) rotate(-59.98)"/></clipPath><linearGradient id="linear-gradient-17" x1="2163.15" y1="-793.98" x2="2164.15" y2="-793.98" gradientTransform="translate(-1260.12 487.22) rotate(.04) scale(.59)" xlink:href="#linear-gradient-11"/><mask id="mask-8" x="13.52" y="14.57" width="9.16" height="9.13" maskUnits="userSpaceOnUse"><g><rect x="15.6" y="16.73" width="4.99" height="4.81"/><g class="cls-18"><g class="cls-33"><rect class="cls-7" x="14.77" y="15.77" width="6.66" height="6.73" transform="translate(-7.52 25.26) rotate(-60.04)"/></g></g></g></mask><clipPath id="clippath-37"><rect class="cls-46" x="15.6" y="16.73" width="4.99" height="4.81"/></clipPath><clipPath id="clippath-38"><rect class="cls-46" x="16.43" y="17.22" width="3.33" height="3.84" transform="translate(-7.53 25.23) rotate(-59.98)"/></clipPath><linearGradient id="linear-gradient-18" x1="2163.15" y1="-793.98" x2="2164.15" y2="-793.98" gradientTransform="translate(-1260.12 487.22) rotate(.04) scale(.59)" xlink:href="#linear-gradient-12"/></defs><g class="cls-18"><g id="_層_2"><g id="_層_1-2"><g><g><path class="cls-6" d="M57.96,27.35h8.88v2.21h-12.93v-1.99c-3.26,.61-6.6,1.2-8.76,1.57-.02,.19-.22,.32-.39,.37l-.71-2.5c1.18-.15,2.65-.37,4.27-.61v-6.41h-4v-2.04h4v-2.28h-2.58v-.54c-.2,.22-.42,.44-.64,.64-.34-.49-1.05-1.25-1.57-1.57,2.28-2.04,3.95-4.69,4.88-6.77l2.68,.42c-.05,.22-.22,.34-.54,.34l-.02,.05c1.57,1.15,3.41,2.65,4.29,3.71l-1.33,1.87c-.83-1.03-2.48-2.53-3.98-3.71-.66,1.15-1.5,2.38-2.48,3.58h6.19v1.99h-2.8v2.28h3.85v2.04h-3.85v6.11c1.3-.2,2.63-.42,3.95-.61l.12,1.87h1.13V10.88h-1.35v-2.21h12.2v2.21h-8.52v3.48h7.48v9.15h-7.48v3.83Zm-12.12-1.62c-.12-1.18-.56-2.99-1.06-4.39l1.62-.44c.52,1.37,.98,3.17,1.13,4.34l-1.69,.49Zm8.61-4.29c-.07,.17-.27,.24-.56,.24-.34,1.1-.93,2.75-1.45,3.8l-1.47-.54c.47-1.13,1.03-2.97,1.3-4.2l2.18,.69Zm8.76-4.93h-5.25v4.88h5.25v-4.88Z"/><path class="cls-6" d="M75.99,21.65V13.56c-.47,.22-.91,.42-1.35,.59-.29-.37-.91-1.06-1.3-1.37,1.82-.66,3.9-1.67,5.4-2.77h-4.29v-1.74h20.88v1.74h-4.17c1.94,.88,4,2.04,5.23,2.9l-1.55,1.18c-.34-.25-.74-.54-1.2-.84v6.53c0,1.57-.49,1.91-3.21,1.91-.07-.37-.22-.78-.37-1.18l-.12,.1c-.27-.27-.66-.59-1.08-.93-.66,.52-1.37,.98-2.04,1.35-.25-.25-.66-.64-.98-.81,.66-.34,1.37-.79,2.04-1.28-.44-.29-.88-.59-1.3-.81l.98-.74c.39,.22,.84,.47,1.25,.76,.37-.37,.71-.74,.98-1.1l1.57,.56c-.07,.15-.22,.2-.49,.17-.29,.37-.64,.74-1.03,1.08,.44,.32,.83,.64,1.1,.91l-.34,.29c.78,0,.88,0,.88-.27v-6.65h-5.67v8.47h-2.13V13.14h-5.57v8.51h-2.11Zm13.94,5.15c.69,.34,1.4,.71,1.84,.98l-.61,.54h4.86v1.67h-22.45v-1.67h10.01v-1.52h-6.99v-1.57h6.99v-1.33h-8.42v-1.64h19.39v1.64h-8.64v1.33h7.17v1.57h-3.14Zm-6.5-12.76c-.05,.15-.22,.22-.47,.2-.29,.29-.61,.59-.98,.88,.47,.32,.88,.61,1.18,.88l-1.03,.81c-.29-.27-.69-.59-1.15-.91-.61,.42-1.28,.81-1.89,1.13-.22-.22-.66-.61-.93-.79,.59-.27,1.2-.61,1.79-1.03-.42-.25-.86-.49-1.25-.69l.98-.74c.39,.19,.83,.42,1.25,.66,.37-.29,.71-.61,.98-.96l1.52,.54Zm-3.66,3.51c.42,.22,.86,.49,1.28,.79,.37-.37,.71-.74,.98-1.1l1.57,.54c-.07,.15-.22,.22-.47,.22-.29,.34-.66,.71-1.06,1.06,.49,.37,.93,.74,1.23,1.03l-1.03,.81c-.29-.29-.71-.66-1.15-1.03-.66,.52-1.37,.98-2.04,1.33-.22-.22-.64-.61-.93-.79,.66-.34,1.35-.78,1.99-1.28-.47-.32-.93-.61-1.35-.86l.98-.71Zm3.9-7.56h-3.39l1.13,.49c-.15,.17-.37,.22-.59,.17-.39,.32-.86,.64-1.35,.96h4.2v-1.62Zm2.13,1.62h4.96c-.81-.42-1.65-.78-2.41-1.1l.74-.51h-3.29v1.62Zm5.42,2.43c-.07,.12-.22,.22-.47,.2-.27,.27-.59,.56-.93,.86,.47,.29,.88,.61,1.18,.88l-1.01,.86c-.32-.29-.74-.64-1.23-.96-.64,.42-1.33,.84-1.96,1.13-.2-.2-.64-.59-.93-.78,.59-.27,1.23-.64,1.84-1.03-.44-.27-.86-.49-1.28-.69l.98-.76c.42,.2,.86,.44,1.3,.69,.37-.32,.69-.64,.96-.96l1.55,.56Zm-5.33,12.76v1.52h3.76c-.56-.34-1.23-.71-1.77-.98l.69-.54h-2.68Z"/><path class="cls-6" d="M109.08,15.89l1.32,.39c-.03,.15-.1,.29-.17,.39-.34,3.29-.98,6.06-1.91,8.29,2.38,2.09,5.67,2.55,9.59,2.58,1.23,0,6.45,0,7.98-.05-.37,.54-.76,1.59-.91,2.26h-7.12c-4.37,0-7.88-.54-10.53-2.77-.83,1.47-1.84,2.63-3.02,3.48-.37-.47-1.25-1.28-1.77-1.59,1.28-.86,2.36-2.06,3.19-3.61-.93-1.25-1.72-2.85-2.36-4.86l1.84-.66c.39,1.32,.91,2.43,1.5,3.34,.51-1.45,.91-3.14,1.18-5.08h-2.4l-.42,.86-2.11-.56c1.15-2.26,2.53-5.15,3.49-7.34h-3.68v-2.04h5.01l.42-.07,1.4,.52c-.07,.12-.15,.3-.25,.39-.69,1.55-1.77,3.9-2.85,6.21h2.18l.39-.07Zm7.12-3.26v-1.45h-4.69v-1.79h4.69v-2.01l2.82,.15c-.03,.22-.2,.34-.56,.42v1.45h5.15v3.24h2.04v1.84h-2.04v3.29h-5.15v1.52h5.57v1.74h-5.57v1.52h6.67v1.89h-6.67v2.38h-2.26v-2.38h-6.26v-1.89h6.26v-1.52h-5.18v-1.74h5.18v-1.52h-4.81v-1.79h4.81v-1.5h-6.6v-1.84h6.6Zm5.13-1.45h-2.87v1.45h2.87v-1.45Zm0,4.79v-1.5h-2.87v1.5h2.87Z"/><path class="cls-6" d="M141.68,11.54v1.86h-9.55v-1.86h9.55Zm-.88,10.13v7.36h-5.55v1.05h-1.99v-8.42h7.53Zm4.86-11.44v.93c0,2.26-.54,4.98-3.17,6.75-.32-.44-1.2-1.2-1.69-1.5v.34h-7.48v-1.82h7.48v1.42c2.31-1.52,2.65-3.51,2.65-5.23v-2.97h8.03v5.86c0,.59,.05,.69,.42,.69h.98c.37,0,.47-.32,.51-2.63,.44,.37,1.33,.71,1.91,.86-.17,2.97-.74,3.76-2.18,3.76h-1.62c-1.72,0-2.23-.59-2.23-2.65v-3.83h-3.61Zm-12.34,9.87v-1.82h7.48v1.82h-7.48Zm7.44-11.85v1.82h-7.34v-1.82h7.34Zm-1.99,15.29h-3.51v3.61h3.51v-3.61Zm13.82-5.5l1.5,.61c-.05,.12-.15,.22-.25,.32-.78,2.85-2.16,5.15-3.95,6.95,1.57,1.1,3.41,1.94,5.47,2.46-.52,.47-1.18,1.4-1.52,2.01-2.18-.64-4.1-1.65-5.74-2.92-1.74,1.3-3.78,2.26-6.01,2.92-.22-.59-.81-1.55-1.25-2.04,2.01-.49,3.93-1.32,5.55-2.48-1.33-1.4-2.41-3.07-3.24-4.96l2.06-.66c.69,1.57,1.67,2.99,2.9,4.2,1.23-1.18,2.21-2.58,2.9-4.22h-8.98v-2.11h10.16l.42-.07Z"/></g><g><path class="cls-3" d="M18.61,8.62h0v-3.17c0,.57,.37,1.13,1.11,1.56l5.62,3.25c.75,.43,1.73,.65,2.71,.64v3.16c-.99,0-1.97-.21-2.71-.64l-5.64-3.24c-.74-.43-1.1-.98-1.1-1.55"/><path class="cls-3" d="M28.04,11.81l-5.51,3.18,2.78,1.6,1.74-1.02c.62-.36,1.38-.36,1.99,0l1.74,1.02,2.77-1.6-5.51-3.18Z"/><path class="cls-3" d="M28.04,2.26l-5.51,3.18,2.78,1.6,1.74-1.02c.62-.36,1.38-.36,1.99,0l1.74,1.02,2.77-1.6-5.51-3.18Z"/><path class="cls-11" d="M36.36,13.43l-2.87-1.66c-1.49-.85-1.49-2.25,0-3.11l2.87-1.65c1.48-.86,1.48-2.26,0-3.12L30.73,.64c-1.48-.86-3.91-.86-5.39,0l-5.62,3.25c-1.49,.85-1.49,2.26,0,3.12l2.87,1.65c1.48,.86,1.48,2.26,0,3.11l-2.87,1.65c-1.49,.86-1.49,2.26,0,3.12l5.62,3.25c1.49,.86,3.91,.86,5.39,0l5.63-3.25c1.48-.85,1.48-2.25,0-3.11m-12.97-7.48c-.48-.27-.48-.72,0-1l3.78-2.18c.47-.27,1.25-.27,1.72,0l3.78,2.18c.47,.28,.47,.73,0,1l-3.78,2.18c-.47,.27-1.25,.27-1.73,0l-3.78-2.18Zm9.28,9.55l-3.78,2.18c-.47,.27-1.25,.27-1.73,0l-3.78-2.18c-.47-.27-.47-.72,0-.99l3.78-2.19c.48-.28,1.25-.28,1.73,0l3.78,2.19c.48,.27,.48,.72,0,.99"/><polygon class="cls-3" points="21.06 10.94 21.03 7.76 25.26 10.2 22.54 11.8 21.06 10.94"/><g class="cls-45"><g class="cls-55"><g class="cls-16"><g class="cls-50"><rect class="cls-1" x="19.69" y="3.11" width="11.14" height="11.03" transform="translate(-.93 13.79) rotate(-30.01)"/></g></g></g></g><g class="cls-30"><g class="cls-54"><g class="cls-22"><g class="cls-26"><rect class="cls-66" x="28.42" y="8.52" width="9.32" height="9.23" transform="translate(-2.13 18.31) rotate(-30.01)"/></g></g></g></g><g class="cls-52"><g class="cls-14"><g class="cls-64"><g class="cls-4"><rect class="cls-15" x="17.01" y="7.82" width="11.03" height="11.14" transform="translate(-.34 26.2) rotate(-59.99)"/></g></g></g></g><path class="cls-3" d="M37.47,18.16h0v-3.17c0,.56-.37,1.13-1.11,1.56l-5.63,3.25c-.74,.43-1.73,.65-2.71,.64v3.16c.98,0,1.97-.21,2.71-.64l5.64-3.24c.73-.42,1.1-.99,1.1-1.55"/><polygon class="cls-6" points="30.03 7.48 28.02 8.62 26.15 7.52 30.03 7.48"/><polygon class="cls-6" points="25.27 16.58 28.03 14.99 29.91 16.08 25.27 16.58"/><path class="cls-3" d="M11.47,21.35l-5.51,3.18,2.77,1.6,1.74-1.02c.61-.36,1.38-.36,1.99,0l1.74,1.02,2.77-1.6-5.51-3.18Z"/><path class="cls-3" d="M11.47,11.82l-5.51,3.18,2.77,1.6,1.74-1.02c.61-.36,1.38-.36,1.99,0l1.79,1,2.72-1.59-5.51-3.18Z"/><path class="cls-11" d="M19.79,22.98l-2.87-1.66c-1.48-.85-1.48-2.25,0-3.11l2.87-1.66c1.48-.85,1.48-2.25,0-3.11l-5.62-3.25c-1.49-.86-3.91-.86-5.4,0l-5.62,3.25c-1.48,.85-1.48,2.26,0,3.11l2.87,1.66c1.48,.86,1.48,2.26,0,3.11l-2.87,1.65c-1.48,.86-1.48,2.26,0,3.12l5.62,3.25c1.48,.86,3.91,.86,5.4,0l5.62-3.25c1.48-.85,1.48-2.25,0-3.11M6.83,15.5c-.48-.27-.48-.73,0-1l3.78-2.18c.47-.27,1.25-.27,1.72,0l3.78,2.18c.47,.27,.47,.72,0,1l-3.78,2.18c-.48,.27-1.25,.27-1.72,0l-3.78-2.18Zm9.28,9.55l-3.79,2.18c-.47,.28-1.25,.28-1.72,0l-3.78-2.18c-.47-.28-.47-.72,0-1l3.78-2.18c.47-.28,1.25-.28,1.72,0l3.79,2.19c.47,.27,.47,.72,0,.99"/><g class="cls-37"><g class="cls-23"><g class="cls-58"><g class="cls-21"><rect class="cls-68" x="2.55" y="12.03" width="12.3" height="12.3" transform="translate(-10.31 11.47) rotate(-45)"/></g></g></g></g><g class="cls-5"><g class="cls-42"><g class="cls-57"><g class="cls-47"><rect class="cls-32" x="11.41" y="17.43" width="11.14" height="11.03" transform="translate(-9.2 11.57) rotate(-30.01)"/></g></g></g></g><g class="cls-69"><g class="cls-2"><g class="cls-27"><g class="cls-35"><g class="cls-65"><g class="cls-38"><rect class="cls-70" x="9.77" y="20.59" width="6.73" height="6.66" transform="translate(-10.21 9.78) rotate(-30.02)"/></g></g></g></g></g></g><g class="cls-69"><g class="cls-20"><g class="cls-24"><g class="cls-49"><g class="cls-67"><g class="cls-56"><rect class="cls-13" x="26.33" y="11.03" width="6.73" height="6.66" transform="translate(-3.2 16.76) rotate(-29.99)"/></g></g></g></g></g></g><path class="cls-3" d="M20.9,27.71h0v-3.17c0,.56-.37,1.13-1.11,1.56l-5.62,3.25c-.75,.43-1.73,.64-2.72,.64v3.16c.98,0,1.97-.21,2.72-.64l5.63-3.24c.73-.43,1.1-.99,1.1-1.55"/><path class="cls-3" d="M2.04,27.71h0v-3.17c0,.56,.37,1.13,1.11,1.56l5.62,3.25c.75,.43,1.73,.64,2.72,.64v3.16c-.99,0-1.97-.21-2.72-.64l-5.63-3.24c-.73-.43-1.1-.99-1.1-1.55"/><polygon class="cls-6" points="13.47 17.03 11.46 18.18 9.58 17.07 13.47 17.03"/><polygon class="cls-6" points="8.7 26.14 11.46 24.53 13.34 25.64 8.7 26.14"/><path class="cls-3" d="M36.36,7.01L9.89,22.27l2.75,1.58,22.81-13.15h0l.92-.54c.73-.42,1.1-.98,1.1-1.55v-3.17c0,.56-.37,1.13-1.11,1.56"/><polygon class="cls-11" points="14.26 13.41 14.26 10.23 25.27 16.59 25.27 19.77 14.26 13.41"/><g class="cls-39"><g class="cls-63"><g class="cls-9"><g class="cls-8"><rect class="cls-36" x="8.69" y="12.6" width="11.03" height="11.15" transform="translate(-8.63 21.39) rotate(-60.02)"/></g></g></g></g><path class="cls-3" d="M25.32,19.79c.74,.43,1.73,.65,2.71,.64v3.16c-.98,0-1.97-.21-2.71-.64l-12.24-7.04v-3.16l12.24,7.04Z"/><path class="cls-3" d="M2.04,18.17h0v-3.17c0,.57,.37,1.13,1.11,1.56l5.55,3.2-2.73,1.59-2.83-1.63c-.73-.43-1.1-.99-1.1-1.55"/><g class="cls-69"><g class="cls-28"><g class="cls-71"><g class="cls-40"><g class="cls-19"><g class="cls-31"><rect class="cls-12" x="14.77" y="15.77" width="6.66" height="6.73" transform="translate(-7.52 25.26) rotate(-60.04)"/></g></g></g></g></g></g></g></g></g></g></g></svg>